<?xml version="1.0" encoding="UTF-8" standalone="no"?>
<svg
   xmlns:dc="http://purl.org/dc/elements/1.1/"
   xmlns:cc="http://creativecommons.org/ns#"
   xmlns:rdf="http://www.w3.org/1999/02/22-rdf-syntax-ns#"
   xmlns:svg="http://www.w3.org/2000/svg"
   xmlns="http://www.w3.org/2000/svg"
   xmlns:sodipodi="http://sodipodi.sourceforge.net/DTD/sodipodi-0.dtd"
   xmlns:inkscape="http://www.inkscape.org/namespaces/inkscape"
   version="1.1"
   width="222"
   height="222"
   id="svg11"
   sodipodi:docname="qrcode.svg"
   inkscape:version="0.92.4 (33fec40, 2019-01-16)">
  <metadata
     id="metadata17">
    <rdf:RDF>
      <cc:Work
         rdf:about="">
        <dc:format>image/svg+xml</dc:format>
        <dc:type
           rdf:resource="http://purl.org/dc/dcmitype/StillImage" />
      </cc:Work>
    </rdf:RDF>
  </metadata>
  <defs
     id="defs15" />
  <sodipodi:namedview
     pagecolor="#ffffff"
     bordercolor="#666666"
     borderopacity="1"
     objecttolerance="10"
     gridtolerance="10"
     guidetolerance="10"
     inkscape:pageopacity="0"
     inkscape:pageshadow="2"
     inkscape:window-width="1853"
     inkscape:window-height="1025"
     id="namedview13"
     showgrid="false"
     inkscape:zoom="1.0630631"
     inkscape:cx="-59.26271"
     inkscape:cy="199.42373"
     inkscape:window-x="67"
     inkscape:window-y="27"
     inkscape:window-maximized="1"
     inkscape:current-layer="svg11" />
  <!-- Created with https://api.qrserver.com (QR Code API, see goQR.me/api for information) -->
  <title
     id="title2">QR Code</title>
  <desc
     id="desc4">https://play.google.com/store/apps/details?id=com.itechart.enterprise.discounts</desc>
  <g
     id="elements">
    <path
       style="fill:#000000"
       d="M 0,0 H 6 V 6 H 0 Z m 6,0 h 6 V 6 H 6 Z m 6,0 h 6 v 6 h -6 z m 6,0 h 6 v 6 h -6 z m 6,0 h 6 v 6 h -6 z m 6,0 h 6 v 6 h -6 z m 6,0 h 6 v 6 h -6 z m 18,0 h 6 v 6 h -6 z m 36,0 h 6 v 6 h -6 z m 6,0 h 6 v 6 h -6 z m 12,0 h 6 v 6 h -6 z m 6,0 h 6 v 6 h -6 z m 6,0 h 6 v 6 h -6 z m 18,0 h 6 v 6 h -6 z m 18,0 h 6 v 6 h -6 z m 12,0 h 6 v 6 h -6 z m 12,0 h 6 v 6 h -6 z m 6,0 h 6 v 6 h -6 z m 6,0 h 6 v 6 h -6 z m 6,0 h 6 v 6 h -6 z m 6,0 h 6 v 6 h -6 z m 6,0 h 6 v 6 h -6 z m 6,0 h 6 v 6 h -6 z M 0,6 h 6 v 6 H 0 Z m 36,0 h 6 v 6 h -6 z m 12,0 h 6 v 6 h -6 z m 6,0 h 6 v 6 h -6 z m 12,0 h 6 v 6 h -6 z m 6,0 h 6 v 6 h -6 z m 48,0 h 6 v 6 h -6 z m 6,0 h 6 v 6 h -6 z m 18,0 h 6 v 6 h -6 z m 18,0 h 6 v 6 h -6 z m 18,0 h 6 v 6 h -6 z m 36,0 h 6 v 6 h -6 z M 0,12 h 6 v 6 H 0 Z m 12,0 h 6 v 6 h -6 z m 6,0 h 6 v 6 h -6 z m 6,0 h 6 v 6 h -6 z m 12,0 h 6 v 6 h -6 z m 18,0 h 6 v 6 h -6 z m 6,0 h 6 v 6 h -6 z m 6,0 h 6 v 6 h -6 z m 18,0 h 6 v 6 h -6 z m 12,0 h 6 v 6 h -6 z m 18,0 h 6 v 6 h -6 z m 12,0 h 6 v 6 h -6 z m 6,0 h 6 v 6 h -6 z m 6,0 h 6 v 6 h -6 z m 24,0 h 6 v 6 h -6 z m 18,0 h 6 v 6 h -6 z m 12,0 h 6 v 6 h -6 z m 6,0 h 6 v 6 h -6 z m 6,0 h 6 v 6 h -6 z m 12,0 h 6 v 6 h -6 z M 0,18 h 6 v 6 H 0 Z m 12,0 h 6 v 6 h -6 z m 6,0 h 6 v 6 h -6 z m 6,0 h 6 v 6 h -6 z m 12,0 h 6 v 6 h -6 z m 12,0 h 6 v 6 h -6 z m 6,0 h 6 v 6 h -6 z m 12,0 h 6 v 6 h -6 z m 30,0 h 6 v 6 h -6 z m 6,0 h 6 v 6 h -6 z m 6,0 h 6 v 6 h -6 z m 12,0 h 6 v 6 h -6 z m 12,0 h 6 v 6 h -6 z m 6,0 h 6 v 6 h -6 z m 6,0 h 6 v 6 h -6 z m 6,0 h 6 v 6 h -6 z m 6,0 h 6 v 6 h -6 z m 6,0 h 6 v 6 h -6 z m 6,0 h 6 v 6 h -6 z m 12,0 h 6 v 6 h -6 z m 12,0 h 6 v 6 h -6 z m 6,0 h 6 v 6 h -6 z m 6,0 h 6 v 6 h -6 z m 12,0 h 6 v 6 h -6 z M 0,24 h 6 v 6 H 0 Z m 12,0 h 6 v 6 h -6 z m 6,0 h 6 v 6 h -6 z m 6,0 h 6 v 6 h -6 z m 12,0 h 6 v 6 h -6 z m 24,0 h 6 v 6 h -6 z m 12,0 h 6 v 6 h -6 z m 6,0 h 6 v 6 h -6 z m 6,0 h 6 v 6 h -6 z m 6,0 h 6 v 6 h -6 z m 12,0 h 6 v 6 h -6 z m 6,0 h 6 v 6 h -6 z m 6,0 h 6 v 6 h -6 z m 6,0 h 6 v 6 h -6 z m 6,0 h 6 v 6 h -6 z m 6,0 h 6 v 6 h -6 z m 6,0 h 6 v 6 h -6 z m 6,0 h 6 v 6 h -6 z m 12,0 h 6 v 6 h -6 z m 12,0 h 6 v 6 h -6 z m 12,0 h 6 v 6 h -6 z m 12,0 h 6 v 6 h -6 z m 6,0 h 6 v 6 h -6 z m 6,0 h 6 v 6 h -6 z m 12,0 h 6 v 6 h -6 z M 0,30 h 6 v 6 H 0 Z m 36,0 h 6 v 6 h -6 z m 12,0 h 6 v 6 h -6 z m 12,0 h 6 v 6 h -6 z m 18,0 h 6 v 6 h -6 z m 6,0 h 6 v 6 h -6 z m 6,0 h 6 v 6 h -6 z m 6,0 h 6 v 6 h -6 z m 6,0 h 6 v 6 h -6 z m 18,0 h 6 v 6 h -6 z m 6,0 h 6 v 6 h -6 z m 6,0 h 6 v 6 h -6 z m 18,0 h 6 v 6 h -6 z m 12,0 h 6 v 6 h -6 z m 6,0 h 6 v 6 h -6 z m 12,0 h 6 v 6 h -6 z m 36,0 h 6 v 6 h -6 z M 0,36 h 6 v 6 H 0 Z m 6,0 h 6 v 6 H 6 Z m 6,0 h 6 v 6 h -6 z m 6,0 h 6 v 6 h -6 z m 6,0 h 6 v 6 h -6 z m 6,0 h 6 v 6 h -6 z m 6,0 h 6 v 6 h -6 z m 12,0 h 6 v 6 h -6 z m 12,0 h 6 v 6 h -6 z m 12,0 h 6 v 6 h -6 z m 12,0 h 6 v 6 h -6 z m 12,0 h 6 v 6 h -6 z m 12,0 h 6 v 6 h -6 z m 12,0 h 6 v 6 h -6 z m 12,0 h 6 v 6 h -6 z m 12,0 h 6 v 6 h -6 z m 12,0 h 6 v 6 h -6 z m 12,0 h 6 v 6 h -6 z m 12,0 h 6 v 6 h -6 z m 6,0 h 6 v 6 h -6 z m 6,0 h 6 v 6 h -6 z m 6,0 h 6 v 6 h -6 z m 6,0 h 6 v 6 h -6 z m 6,0 h 6 v 6 h -6 z m 6,0 h 6 v 6 h -6 z M 72,42 h 6 v 6 h -6 z m 6,0 h 6 v 6 h -6 z m 12,0 h 6 v 6 h -6 z m 18,0 h 6 v 6 h -6 z m 18,0 h 6 v 6 h -6 z m 30,0 h 6 v 6 h -6 z m 6,0 h 6 v 6 h -6 z M 0,48 h 6 v 6 H 0 Z m 6,0 h 6 v 6 H 6 Z m 6,0 h 6 v 6 h -6 z m 6,0 h 6 v 6 h -6 z m 6,0 h 6 v 6 h -6 z m 12,0 h 6 v 6 h -6 z m 6,0 h 6 v 6 h -6 z m 6,0 h 6 v 6 h -6 z m 6,0 h 6 v 6 h -6 z m 6,0 h 6 v 6 h -6 z m 12,0 h 6 v 6 h -6 z m 12,0 h 6 v 6 h -6 z m 6,0 h 6 v 6 h -6 z m 12,0 h 6 v 6 h -6 z m 12,0 h 6 v 6 h -6 z m 18,0 h 6 v 6 h -6 z m 6,0 h 6 v 6 h -6 z m 6,0 h 6 v 6 h -6 z m 6,0 h 6 v 6 h -6 z m 12,0 h 6 v 6 h -6 z m 12,0 h 6 v 6 h -6 z m 12,0 h 6 v 6 h -6 z m 12,0 h 6 v 6 h -6 z m 12,0 h 6 v 6 h -6 z M 0,54 h 6 v 6 H 0 Z m 12,0 h 6 v 6 h -6 z m 6,0 h 6 v 6 h -6 z m 6,0 h 6 v 6 h -6 z m 18,0 h 6 v 6 h -6 z m 6,0 h 6 v 6 h -6 z m 6,0 h 6 v 6 h -6 z m 36,0 h 6 v 6 h -6 z m 6,0 h 6 v 6 h -6 z m 12,0 h 6 v 6 h -6 z m 6,0 h 6 v 6 h -6 z m 6,0 h 6 v 6 h -6 z m 6,0 h 6 v 6 h -6 z m 12,0 h 6 v 6 h -6 z m 12,0 h 6 v 6 h -6 z m 18,0 h 6 v 6 h -6 z m 18,0 h 6 v 6 h -6 z m 12,0 h 6 v 6 h -6 z m 6,0 h 6 v 6 h -6 z m 6,0 h 6 v 6 h -6 z M 0,60 h 6 v 6 H 0 Z m 12,0 h 6 v 6 h -6 z m 24,0 h 6 v 6 h -6 z m 6,0 h 6 v 6 h -6 z m 6,0 h 6 v 6 h -6 z m 6,0 h 6 v 6 h -6 z m 6,0 h 6 v 6 h -6 z m 6,0 h 6 v 6 h -6 z m 6,0 h 6 v 6 h -6 z m 54,0 h 6 v 6 h -6 z m 6,0 h 6 v 6 h -6 z m 18,0 h 6 v 6 h -6 z m 6,0 h 6 v 6 h -6 z m 6,0 h 6 v 6 h -6 z m 6,0 h 6 v 6 h -6 z m 6,0 h 6 v 6 h -6 z m 6,0 h 6 v 6 h -6 z m 18,0 h 6 v 6 h -6 z m 6,0 h 6 v 6 h -6 z m 12,0 h 6 v 6 h -6 z M 6,66 h 6 v 6 H 6 Z m 12,0 h 6 v 6 h -6 z m 24,0 h 6 v 6 h -6 z m 12,0 h 6 v 6 h -6 z m 12,0 h 6 v 6 h -6 z m 18,0 h 6 v 6 h -6 z m 12,0 h 6 v 6 h -6 z m 12,0 h 6 v 6 h -6 z m 6,0 h 6 v 6 h -6 z m 12,0 h 6 v 6 h -6 z m 6,0 h 6 v 6 h -6 z m 6,0 h 6 v 6 h -6 z m 18,0 h 6 v 6 h -6 z m 12,0 h 6 v 6 h -6 z m 6,0 h 6 v 6 h -6 z m 6,0 h 6 v 6 h -6 z m 6,0 h 6 v 6 h -6 z m 6,0 h 6 v 6 h -6 z m 6,0 h 6 v 6 h -6 z m 12,0 h 6 v 6 h -6 z M 18,72 h 6 v 6 h -6 z m 12,0 h 6 v 6 h -6 z m 6,0 h 6 v 6 h -6 z m 18,0 h 6 v 6 h -6 z m 6,0 h 6 v 6 h -6 z m 6,0 h 6 v 6 h -6 z m 30,0 h 6 v 6 h -6 z m 6,0 h 6 v 6 h -6 z m 18,0 h 6 v 6 h -6 z m 12,0 h 6 v 6 h -6 z m 6,0 h 6 v 6 h -6 z m 6,0 h 6 v 6 h -6 z m 6,0 h 6 v 6 h -6 z m 6,0 h 6 v 6 h -6 z m 24,0 h 6 v 6 h -6 z m 12,0 h 6 v 6 h -6 z m 6,0 h 6 v 6 h -6 z m 6,0 h 6 v 6 h -6 z m 12,0 h 6 v 6 h -6 z M 0,78 h 6 v 6 H 0 Z m 6,0 h 6 v 6 H 6 Z m 12,0 h 6 v 6 h -6 z m 6,0 h 6 v 6 h -6 z m 6,0 h 6 v 6 h -6 z m 12,0 h 6 v 6 h -6 z m 12,0 h 6 v 6 h -6 z m 6,0 h 6 v 6 h -6 z m 12,0 h 6 v 6 h -6 z m 6,0 h 6 v 6 h -6 z m 6,0 h 6 v 6 h -6 z m 6,0 h 6 v 6 h -6 z m 12,0 h 6 v 6 h -6 z m 6,0 h 6 v 6 h -6 z m 6,0 h 6 v 6 h -6 z m 6,0 h 6 v 6 h -6 z m 6,0 h 6 v 6 h -6 z m 12,0 h 6 v 6 h -6 z m 48,0 h 6 v 6 h -6 z m 18,0 h 6 v 6 h -6 z m 6,0 h 6 v 6 h -6 z M 12,84 h 6 v 6 h -6 z m 24,0 h 6 v 6 h -6 z m 6,0 h 6 v 6 h -6 z m 6,0 h 6 v 6 h -6 z m 6,0 h 6 v 6 h -6 z m 24,0 h 6 v 6 h -6 z m 6,0 h 6 v 6 h -6 z m 6,0 h 6 v 6 h -6 z m 6,0 h 6 v 6 h -6 z m 12,0 h 6 v 6 h -6 z m 48,0 h 6 v 6 h -6 z m 6,0 h 6 v 6 h -6 z m 6,0 h 6 v 6 h -6 z m 6,0 h 6 v 6 h -6 z m 12,0 h 6 v 6 h -6 z m 6,0 h 6 v 6 h -6 z m 12,0 h 6 v 6 h -6 z m 6,0 h 6 v 6 h -6 z m 6,0 h 6 v 6 h -6 z M 0,90 h 6 v 6 H 0 Z m 6,0 h 6 v 6 H 6 Z m 24,0 h 6 v 6 h -6 z m 12,0 h 6 v 6 h -6 z m 6,0 h 6 v 6 h -6 z m 12,0 h 6 v 6 h -6 z m 12,0 h 6 v 6 h -6 z m 6,0 h 6 v 6 h -6 z m 12,0 h 6 v 6 h -6 z m 36,0 h 6 v 6 h -6 z m 6,0 h 6 v 6 h -6 z m 6,0 h 6 v 6 h -6 z m 6,0 h 6 v 6 h -6 z m 18,0 h 6 v 6 h -6 z m 6,0 h 6 v 6 h -6 z m 18,0 h 6 v 6 h -6 z m 12,0 h 6 v 6 h -6 z m 18,0 h 6 v 6 h -6 z M 6,96 h 6 v 6 H 6 Z m 24,0 h 6 v 6 h -6 z m 6,0 h 6 v 6 h -6 z m 6,0 h 6 v 6 h -6 z m 30,0 h 6 v 6 h -6 z m 12,0 h 6 v 6 h -6 z m 6,0 h 6 v 6 h -6 z m 12,0 h 6 v 6 h -6 z m 18,0 h 6 v 6 h -6 z m 12,0 h 6 v 6 h -6 z m 12,0 h 6 v 6 h -6 z m 6,0 h 6 v 6 h -6 z m 6,0 h 6 v 6 h -6 z m 6,0 h 6 v 6 h -6 z m 12,0 h 6 v 6 h -6 z m 6,0 h 6 v 6 h -6 z m 12,0 h 6 v 6 h -6 z m 6,0 h 6 v 6 h -6 z m 6,0 h 6 v 6 h -6 z m 12,0 h 6 v 6 h -6 z m -192,6 h 6 v 6 h -6 z m 24,0 h 6 v 6 h -6 z m 42,0 h 6 v 6 h -6 z m 6,0 h 6 v 6 h -6 z m 18,0 h 6 v 6 h -6 z m 6,0 h 6 v 6 h -6 z m 18,0 h 6 v 6 h -6 z m 30,0 h 6 v 6 h -6 z m 18,0 h 6 v 6 h -6 z m 18,0 h 6 v 6 h -6 z m 6,0 h 6 v 6 h -6 z M 0,108 h 6 v 6 H 0 Z m 18,0 h 6 v 6 h -6 z m 18,0 h 6 v 6 h -6 z m 6,0 h 6 v 6 h -6 z m 6,0 h 6 v 6 h -6 z m 12,0 h 6 v 6 h -6 z m 6,0 h 6 v 6 h -6 z m 6,0 h 6 v 6 h -6 z m 30,0 h 6 v 6 h -6 z m 6,0 h 6 v 6 h -6 z m 18,0 h 6 v 6 h -6 z m 30,0 h 6 v 6 h -6 z m 6,0 h 6 v 6 h -6 z m 18,0 h 6 v 6 h -6 z m 6,0 h 6 v 6 h -6 z m 6,0 h 6 v 6 h -6 z m 12,0 h 6 v 6 h -6 z m 6,0 h 6 v 6 h -6 z m 6,0 h 6 v 6 h -6 z M 6,114 h 6 v 6 H 6 Z m 12,0 h 6 v 6 h -6 z m 6,0 h 6 v 6 h -6 z m 30,0 h 6 v 6 h -6 z m 6,0 h 6 v 6 h -6 z m 6,0 h 6 v 6 h -6 z m 18,0 h 6 v 6 h -6 z m 12,0 h 6 v 6 h -6 z m 18,0 h 6 v 6 h -6 z m 12,0 h 6 v 6 h -6 z m 30,0 h 6 v 6 h -6 z m 18,0 h 6 v 6 h -6 z m 12,0 h 6 v 6 h -6 z m 6,0 h 6 v 6 h -6 z m 24,0 h 6 v 6 h -6 z M 0,120 h 6 v 6 H 0 Z m 12,0 h 6 v 6 h -6 z m 6,0 h 6 v 6 h -6 z m 18,0 h 6 v 6 h -6 z m 18,0 h 6 v 6 h -6 z m 12,0 h 6 v 6 h -6 z m 30,0 h 6 v 6 h -6 z m 6,0 h 6 v 6 h -6 z m 18,0 h 6 v 6 h -6 z m 12,0 h 6 v 6 h -6 z m 6,0 h 6 v 6 h -6 z m 12,0 h 6 v 6 h -6 z m 6,0 h 6 v 6 h -6 z m 6,0 h 6 v 6 h -6 z m 6,0 h 6 v 6 h -6 z m 6,0 h 6 v 6 h -6 z m 6,0 h 6 v 6 h -6 z m 12,0 h 6 v 6 h -6 z m 12,0 h 6 v 6 h -6 z m 6,0 h 6 v 6 h -6 z m 6,0 h 6 v 6 h -6 z M 6,126 h 6 v 6 H 6 Z m 12,0 h 6 v 6 h -6 z m 24,0 h 6 v 6 h -6 z m 12,0 h 6 v 6 h -6 z m 18,0 h 6 v 6 h -6 z m 6,0 h 6 v 6 h -6 z m 6,0 h 6 v 6 h -6 z m 6,0 h 6 v 6 h -6 z m 18,0 h 6 v 6 h -6 z m 6,0 h 6 v 6 h -6 z m 6,0 h 6 v 6 h -6 z m 6,0 h 6 v 6 h -6 z m 12,0 h 6 v 6 h -6 z m 6,0 h 6 v 6 h -6 z m 12,0 h 6 v 6 h -6 z m 12,0 h 6 v 6 h -6 z m 18,0 h 6 v 6 h -6 z m 12,0 h 6 v 6 h -6 z m 12,0 h 6 v 6 h -6 z M 0,132 h 6 v 6 H 0 Z m 6,0 h 6 v 6 H 6 Z m 6,0 h 6 v 6 h -6 z m 6,0 h 6 v 6 h -6 z m 6,0 h 6 v 6 h -6 z m 12,0 h 6 v 6 h -6 z m 12,0 h 6 v 6 h -6 z m 30,0 h 6 v 6 h -6 z m 6,0 h 6 v 6 h -6 z m 6,0 h 6 v 6 h -6 z m 6,0 h 6 v 6 h -6 z m 6,0 h 6 v 6 h -6 z m 6,0 h 6 v 6 h -6 z m 12,0 h 6 v 6 h -6 z m 6,0 h 6 v 6 h -6 z m 18,0 h 6 v 6 h -6 z m 12,0 h 6 v 6 h -6 z m 6,0 h 6 v 6 h -6 z m 6,0 h 6 v 6 h -6 z m 6,0 h 6 v 6 h -6 z m 12,0 h 6 v 6 h -6 z m 6,0 h 6 v 6 h -6 z m 6,0 h 6 v 6 h -6 z m 12,0 h 6 v 6 h -6 z m 6,0 h 6 v 6 h -6 z M 0,138 h 6 v 6 H 0 Z m 6,0 h 6 v 6 H 6 Z m 18,0 h 6 v 6 h -6 z m 24,0 h 6 v 6 h -6 z m 6,0 h 6 v 6 h -6 z m 6,0 h 6 v 6 h -6 z m 12,0 h 6 v 6 h -6 z m 6,0 h 6 v 6 h -6 z m 12,0 h 6 v 6 h -6 z m 30,0 h 6 v 6 h -6 z m 6,0 h 6 v 6 h -6 z m 6,0 h 6 v 6 h -6 z m 36,0 h 6 v 6 h -6 z m 6,0 h 6 v 6 h -6 z m 12,0 h 6 v 6 h -6 z m 6,0 h 6 v 6 h -6 z m 24,0 h 6 v 6 h -6 z M 6,144 h 6 v 6 H 6 Z m 6,0 h 6 v 6 h -6 z m 12,0 h 6 v 6 h -6 z m 6,0 h 6 v 6 h -6 z m 6,0 h 6 v 6 h -6 z m 6,0 h 6 v 6 h -6 z m 12,0 h 6 v 6 h -6 z m 18,0 h 6 v 6 h -6 z m 12,0 h 6 v 6 h -6 z m 6,0 h 6 v 6 h -6 z m 12,0 h 6 v 6 h -6 z m 30,0 h 6 v 6 h -6 z m 12,0 h 6 v 6 h -6 z m 6,0 h 6 v 6 h -6 z m 6,0 h 6 v 6 h -6 z m 18,0 h 6 v 6 h -6 z m 6,0 h 6 v 6 h -6 z m 12,0 h 6 v 6 h -6 z m 6,0 h 6 v 6 h -6 z m 6,0 h 6 v 6 h -6 z m 6,0 h 6 v 6 h -6 z m 6,0 h 6 v 6 h -6 z M 0,150 h 6 v 6 H 0 Z m 18,0 h 6 v 6 h -6 z m 6,0 h 6 v 6 h -6 z m 18,0 h 6 v 6 h -6 z m 48,0 h 6 v 6 h -6 z m 6,0 h 6 v 6 h -6 z m 6,0 h 6 v 6 h -6 z m 6,0 h 6 v 6 h -6 z m 6,0 h 6 v 6 h -6 z m 6,0 h 6 v 6 h -6 z m 6,0 h 6 v 6 h -6 z m 6,0 h 6 v 6 h -6 z m 6,0 h 6 v 6 h -6 z m 30,0 h 6 v 6 h -6 z m 18,0 h 6 v 6 h -6 z m 18,0 h 6 v 6 h -6 z m 6,0 h 6 v 6 h -6 z M 0,156 h 6 v 6 H 0 Z m 12,0 h 6 v 6 h -6 z m 6,0 h 6 v 6 h -6 z m 6,0 h 6 v 6 h -6 z m 12,0 h 6 v 6 h -6 z m 12,0 h 6 v 6 h -6 z m 12,0 h 6 v 6 h -6 z m 6,0 h 6 v 6 h -6 z m 6,0 h 6 v 6 h -6 z m 30,0 h 6 v 6 h -6 z m 60,0 h 6 v 6 h -6 z m 12,0 h 6 v 6 h -6 z m 12,0 h 6 v 6 h -6 z m 6,0 h 6 v 6 h -6 z m 6,0 h 6 v 6 h -6 z m 12,0 h 6 v 6 h -6 z m 6,0 h 6 v 6 h -6 z M 0,162 h 6 v 6 H 0 Z m 12,0 h 6 v 6 h -6 z m 6,0 h 6 v 6 h -6 z m 6,0 h 6 v 6 h -6 z m 6,0 h 6 v 6 h -6 z m 18,0 h 6 v 6 h -6 z m 6,0 h 6 v 6 h -6 z m 6,0 h 6 v 6 h -6 z m 6,0 h 6 v 6 h -6 z m 18,0 h 6 v 6 h -6 z m 12,0 h 6 v 6 h -6 z m 24,0 h 6 v 6 h -6 z m 6,0 h 6 v 6 h -6 z m 18,0 h 6 v 6 h -6 z m 12,0 h 6 v 6 h -6 z m 6,0 h 6 v 6 h -6 z m 6,0 h 6 v 6 h -6 z m 6,0 h 6 v 6 h -6 z m 6,0 h 6 v 6 h -6 z m 6,0 h 6 v 6 h -6 z m 30,0 h 6 v 6 h -6 z M 0,168 h 6 v 6 H 0 Z m 18,0 h 6 v 6 h -6 z m 6,0 h 6 v 6 h -6 z m 12,0 h 6 v 6 h -6 z m 18,0 h 6 v 6 h -6 z m 6,0 h 6 v 6 h -6 z m 6,0 h 6 v 6 h -6 z m 36,0 h 6 v 6 h -6 z m 18,0 h 6 v 6 h -6 z m 12,0 h 6 v 6 h -6 z m 6,0 h 6 v 6 h -6 z m 6,0 h 6 v 6 h -6 z m 6,0 h 6 v 6 h -6 z m 6,0 h 6 v 6 h -6 z m 6,0 h 6 v 6 h -6 z m 6,0 h 6 v 6 h -6 z m 6,0 h 6 v 6 h -6 z m 6,0 h 6 v 6 h -6 z m 6,0 h 6 v 6 h -6 z m 6,0 h 6 v 6 h -6 z m 6,0 h 6 v 6 h -6 z m 6,0 h 6 v 6 h -6 z m -156,6 h 6 v 6 h -6 z m 24,0 h 6 v 6 h -6 z m 6,0 h 6 v 6 h -6 z m 6,0 h 6 v 6 h -6 z m 6,0 h 6 v 6 h -6 z m 24,0 h 6 v 6 h -6 z m 6,0 h 6 v 6 h -6 z m 6,0 h 6 v 6 h -6 z m 6,0 h 6 v 6 h -6 z m 6,0 h 6 v 6 h -6 z m 12,0 h 6 v 6 h -6 z m 18,0 h 6 v 6 h -6 z m 24,0 h 6 v 6 h -6 z m 6,0 h 6 v 6 h -6 z M 0,180 h 6 v 6 H 0 Z m 6,0 h 6 v 6 H 6 Z m 6,0 h 6 v 6 h -6 z m 6,0 h 6 v 6 h -6 z m 6,0 h 6 v 6 h -6 z m 6,0 h 6 v 6 h -6 z m 6,0 h 6 v 6 h -6 z m 12,0 h 6 v 6 h -6 z m 12,0 h 6 v 6 h -6 z m 18,0 h 6 v 6 h -6 z m 6,0 h 6 v 6 h -6 z m 6,0 h 6 v 6 h -6 z m 6,0 h 6 v 6 h -6 z m 30,0 h 6 v 6 h -6 z m 6,0 h 6 v 6 h -6 z m 36,0 h 6 v 6 h -6 z m 12,0 h 6 v 6 h -6 z m 12,0 h 6 v 6 h -6 z m 18,0 h 6 v 6 h -6 z m 6,0 h 6 v 6 h -6 z M 0,186 h 6 v 6 H 0 Z m 36,0 h 6 v 6 h -6 z m 36,0 h 6 v 6 h -6 z m 6,0 h 6 v 6 h -6 z m 36,0 h 6 v 6 h -6 z m 6,0 h 6 v 6 h -6 z m 6,0 h 6 v 6 h -6 z m 12,0 h 6 v 6 h -6 z m 18,0 h 6 v 6 h -6 z m 12,0 h 6 v 6 h -6 z m 24,0 h 6 v 6 h -6 z m 18,0 h 6 v 6 h -6 z M 0,192 h 6 v 6 H 0 Z m 12,0 h 6 v 6 h -6 z m 6,0 h 6 v 6 h -6 z m 6,0 h 6 v 6 h -6 z m 12,0 h 6 v 6 h -6 z m 12,0 h 6 v 6 h -6 z m 12,0 h 6 v 6 h -6 z m 12,0 h 6 v 6 h -6 z m 12,0 h 6 v 6 h -6 z m 6,0 h 6 v 6 h -6 z m 6,0 h 6 v 6 h -6 z m 6,0 h 6 v 6 h -6 z m 12,0 h 6 v 6 h -6 z m 24,0 h 6 v 6 h -6 z m 12,0 h 6 v 6 h -6 z m 6,0 h 6 v 6 h -6 z m 6,0 h 6 v 6 h -6 z m 6,0 h 6 v 6 h -6 z m 6,0 h 6 v 6 h -6 z m 6,0 h 6 v 6 h -6 z m 6,0 h 6 v 6 h -6 z m 6,0 h 6 v 6 h -6 z m 12,0 h 6 v 6 h -6 z m 6,0 h 6 v 6 h -6 z M 0,198 h 6 v 6 H 0 Z m 12,0 h 6 v 6 h -6 z m 6,0 h 6 v 6 h -6 z m 6,0 h 6 v 6 h -6 z m 12,0 h 6 v 6 h -6 z m 12,0 h 6 v 6 h -6 z m 6,0 h 6 v 6 h -6 z m 42,0 h 6 v 6 h -6 z m 6,0 h 6 v 6 h -6 z m 6,0 h 6 v 6 h -6 z m 6,0 h 6 v 6 h -6 z m 6,0 h 6 v 6 h -6 z m 18,0 h 6 v 6 h -6 z m 6,0 h 6 v 6 h -6 z m 6,0 h 6 v 6 h -6 z m 18,0 h 6 v 6 h -6 z m 12,0 h 6 v 6 h -6 z m 12,0 h 6 v 6 h -6 z m 6,0 h 6 v 6 h -6 z m 6,0 h 6 v 6 h -6 z m 12,0 h 6 v 6 h -6 z M 0,204 h 6 v 6 H 0 Z m 12,0 h 6 v 6 h -6 z m 6,0 h 6 v 6 h -6 z m 6,0 h 6 v 6 h -6 z m 12,0 h 6 v 6 h -6 z m 12,0 h 6 v 6 h -6 z m 6,0 h 6 v 6 h -6 z m 12,0 h 6 v 6 h -6 z m 6,0 h 6 v 6 h -6 z m 18,0 h 6 v 6 h -6 z m 12,0 h 6 v 6 h -6 z m 18,0 h 6 v 6 h -6 z m 12,0 h 6 v 6 h -6 z m 24,0 h 6 v 6 h -6 z m 6,0 h 6 v 6 h -6 z m 24,0 h 6 v 6 h -6 z m 24,0 h 6 v 6 h -6 z m 6,0 h 6 v 6 h -6 z M 0,210 h 6 v 6 H 0 Z m 36,0 h 6 v 6 h -6 z m 12,0 h 6 v 6 h -6 z m 6,0 h 6 v 6 h -6 z m 6,0 h 6 v 6 h -6 z m 6,0 h 6 v 6 h -6 z m 18,0 h 6 v 6 h -6 z m 6,0 h 6 v 6 h -6 z m 6,0 h 6 v 6 h -6 z m 12,0 h 6 v 6 h -6 z m 12,0 h 6 v 6 h -6 z m 6,0 h 6 v 6 h -6 z m 12,0 h 6 v 6 h -6 z m 6,0 h 6 v 6 h -6 z m 24,0 h 6 v 6 h -6 z m 6,0 h 6 v 6 h -6 z m 18,0 h 6 v 6 h -6 z m 6,0 h 6 v 6 h -6 z m 18,0 h 6 v 6 h -6 z M 0,216 h 6 v 6 H 0 Z m 6,0 h 6 v 6 H 6 Z m 6,0 h 6 v 6 h -6 z m 6,0 h 6 v 6 h -6 z m 6,0 h 6 v 6 h -6 z m 6,0 h 6 v 6 h -6 z m 6,0 h 6 v 6 h -6 z m 12,0 h 6 v 6 h -6 z m 18,0 h 6 v 6 h -6 z m 24,0 h 6 v 6 h -6 z m 6,0 h 6 v 6 h -6 z m 6,0 h 6 v 6 h -6 z m 30,0 h 6 v 6 h -6 z m 18,0 h 6 v 6 h -6 z m 6,0 h 6 v 6 h -6 z m 18,0 h 6 v 6 h -6 z m 12,0 h 6 v 6 h -6 z m 6,0 h 6 v 6 h -6 z m 6,0 h 6 v 6 h -6 z m 6,0 h 6 v 6 h -6 z m 6,0 h 6 v 6 h -6 z m 6,0 h 6 v 6 h -6 z"
       id="path8"
       inkscape:connector-curvature="0" />
  </g>
</svg>
