<?xml version="1.0" encoding="UTF-8" standalone="no"?>
<svg
   xmlns:dc="http://purl.org/dc/elements/1.1/"
   xmlns:cc="http://creativecommons.org/ns#"
   xmlns:rdf="http://www.w3.org/1999/02/22-rdf-syntax-ns#"
   xmlns:svg="http://www.w3.org/2000/svg"
   xmlns="http://www.w3.org/2000/svg"
   xmlns:sodipodi="http://sodipodi.sourceforge.net/DTD/sodipodi-0.dtd"
   xmlns:inkscape="http://www.inkscape.org/namespaces/inkscape"
   version="1.1"
   width="222"
   height="222"
   id="svg11"
   sodipodi:docname="ios.svg"
   inkscape:version="0.92.4 (33fec40, 2019-01-16)">
  <metadata
     id="metadata17">
    <rdf:RDF>
      <cc:Work
         rdf:about="">
        <dc:format>image/svg+xml</dc:format>
        <dc:type
           rdf:resource="http://purl.org/dc/dcmitype/StillImage" />
      </cc:Work>
    </rdf:RDF>
  </metadata>
  <defs
     id="defs15" />
  <sodipodi:namedview
     pagecolor="#ffffff"
     bordercolor="#666666"
     borderopacity="1"
     objecttolerance="10"
     gridtolerance="10"
     guidetolerance="10"
     inkscape:pageopacity="0"
     inkscape:pageshadow="2"
     inkscape:window-width="1853"
     inkscape:window-height="1025"
     id="namedview13"
     showgrid="false"
     inkscape:zoom="1.5033982"
     inkscape:cx="62.062044"
     inkscape:cy="47.351356"
     inkscape:window-x="67"
     inkscape:window-y="27"
     inkscape:window-maximized="1"
     inkscape:current-layer="svg11" />
  <!-- Created with https://api.qrserver.com (QR Code API, see goQR.me/api for information) -->
  <title
     id="title2">QR Code</title>
  <desc
     id="desc4">itms-services://?action=download-manifest&amp;url=https://discounts.itechart-group.com/mobile/manifest.plist</desc>
  <path
     inkscape:connector-curvature="0"
     id="path8"
     d="M 0,0 H 6 V 6 H 0 Z m 6,0 h 6 V 6 H 6 Z m 6,0 h 6 v 6 h -6 z m 6,0 h 6 v 6 h -6 z m 6,0 h 6 v 6 h -6 z m 6,0 h 6 v 6 h -6 z m 6,0 h 6 v 6 h -6 z m 36.000004,0 h 6 v 6 h -6 z m 6,0 h 6 v 6 h -6 z m 18,0 H 102 V 6 H 96.000004 Z M 102,0 h 6 v 6 h -6 z m 6,0 h 6 v 6 h -6 z m 6,0 h 6 v 6 h -6 z m 6,0 h 6 v 6 h -6 z m 6,0 h 6 v 6 h -6 z m 6,0 h 6 v 6 h -6 z m 6,0 h 6 v 6 h -6 z m 12,0 h 6 v 6 h -6 z m 30,0 h 6 v 6 h -6 z m 6,0 h 6 v 6 h -6 z m 6,0 h 6 v 6 h -6 z m 6,0 h 6 v 6 h -6 z m 6,0 h 6 v 6 h -6 z m 6,0 h 6 v 6 h -6 z m 6,0 h 6 v 6 h -6 z M 0,6 h 6 v 6 H 0 Z m 36,0 h 6 v 6 h -6 z m 12.000004,0 h 6 v 6 h -6 z m 12,0 h 6 v 6 h -6 z m 12,0 h 6 v 6 h -6 z m 18,0 h 6 v 6 h -6 z M 108,6 h 6 v 6 h -6 z m 12,0 h 6 v 6 h -6 z m 24,0 h 6 v 6 h -6 z m 12,0 h 6 v 6 h -6 z m 6,0 h 6 v 6 h -6 z m 18,0 h 6 v 6 h -6 z m 36,0 h 6 v 6 h -6 z M 0,12 h 6 v 6 H 0 Z m 12,0 h 6 v 6 h -6 z m 6,0 h 6 v 6 h -6 z m 6,0 h 6 v 6 h -6 z m 12,0 h 6 v 6 h -6 z m 48.000004,0 h 6 v 6 h -6 z M 108,12 h 6 v 6 h -6 z m 6,0 h 6 v 6 h -6 z m 12,0 h 6 v 6 h -6 z m 6,0 h 6 v 6 h -6 z m 12,0 h 6 v 6 h -6 z m 12,0 h 6 v 6 h -6 z m 6,0 h 6 v 6 h -6 z m 6,0 h 6 v 6 h -6 z m 12,0 h 6 v 6 h -6 z m 12,0 h 6 v 6 h -6 z m 6,0 h 6 v 6 h -6 z m 6,0 h 6 v 6 h -6 z m 12,0 h 6 v 6 h -6 z M 0,18 h 6 v 6 H 0 Z m 12,0 h 6 v 6 h -6 z m 6,0 h 6 v 6 h -6 z m 6,0 h 6 v 6 h -6 z m 12,0 h 6 v 6 h -6 z m 12.000004,0 h 6 v 6 h -6 z m 6,0 h 6 v 6 h -6 z m 6,0 h 6 v 6 h -6 z m 18,0 h 6 v 6 h -6 z m 6,0 h 6 v 6 h -6 z m 6,0 h 6 v 6 h -6 z M 102,18 h 6 v 6 h -6 z m 48,0 h 6 v 6 h -6 z m 6,0 h 6 v 6 h -6 z m 6,0 h 6 v 6 h -6 z m 18,0 h 6 v 6 h -6 z m 12,0 h 6 v 6 h -6 z m 6,0 h 6 v 6 h -6 z m 6,0 h 6 v 6 h -6 z m 12,0 h 6 v 6 h -6 z M 0,24 h 6 v 6 H 0 Z m 12,0 h 6 v 6 h -6 z m 6,0 h 6 v 6 h -6 z m 6,0 h 6 v 6 h -6 z m 12,0 h 6 v 6 h -6 z m 18.000004,0 h 6 v 6 h -6 z m 12,0 h 6 v 6 h -6 z m 12,0 h 6 v 6 h -6 z m 18,0 H 102 v 6 H 96.000004 Z M 108,24 h 6 v 6 h -6 z m 6,0 h 6 v 6 h -6 z m 6,0 h 6 v 6 h -6 z m 12,0 h 6 v 6 h -6 z m 6,0 h 6 v 6 h -6 z m 12,0 h 6 v 6 h -6 z m 18,0 h 6 v 6 h -6 z m 12,0 h 6 v 6 h -6 z m 12,0 h 6 v 6 h -6 z m 6,0 h 6 v 6 h -6 z m 6,0 h 6 v 6 h -6 z m 12,0 h 6 v 6 h -6 z M 0,30 h 6 v 6 H 0 Z m 36,0 h 6 v 6 h -6 z m 12.000004,0 h 6 v 6 h -6 z m 6,0 h 6 v 6 h -6 z m 30,0 h 6 v 6 h -6 z m 6,0 h 6 v 6 h -6 z m 6,0 H 102 v 6 H 96.000004 Z M 108,30 h 6 v 6 h -6 z m 12,0 h 6 v 6 h -6 z m 24,0 h 6 v 6 h -6 z m 12,0 h 6 v 6 h -6 z m 6,0 h 6 v 6 h -6 z m 6,0 h 6 v 6 h -6 z m 12,0 h 6 v 6 h -6 z m 36,0 h 6 v 6 h -6 z M 0,36 h 6 v 6 H 0 Z m 6,0 h 6 v 6 H 6 Z m 6,0 h 6 v 6 h -6 z m 6,0 h 6 v 6 h -6 z m 6,0 h 6 v 6 h -6 z m 6,0 h 6 v 6 h -6 z m 6,0 h 6 v 6 h -6 z m 12.000004,0 h 6 v 6 h -6 z m 12,0 h 6 v 6 h -6 z m 12,0 h 6 v 6 h -6 z m 12,0 h 6 v 6 h -6 z m 12,0 H 102 v 6 H 96.000004 Z M 108,36 h 6 v 6 h -6 z m 12,0 h 6 v 6 h -6 z m 12,0 h 6 v 6 h -6 z m 12,0 h 6 v 6 h -6 z m 12,0 h 6 v 6 h -6 z m 12,0 h 6 v 6 h -6 z m 12,0 h 6 v 6 h -6 z m 6,0 h 6 v 6 h -6 z m 6,0 h 6 v 6 h -6 z m 6,0 h 6 v 6 h -6 z m 6,0 h 6 v 6 h -6 z m 6,0 h 6 v 6 h -6 z m 6,0 h 6 v 6 h -6 z M 54.000004,42 h 6 v 6 h -6 z m 6,0 h 6 v 6 h -6 z m 6,0 h 6 v 6 h -6 z m 6,0 h 6 v 6 h -6 z m 24,0 H 102 v 6 H 96.000004 Z M 120,42 h 6 v 6 h -6 z m 6,0 h 6 v 6 h -6 z m 30,0 h 6 v 6 h -6 z m 6,0 h 6 v 6 h -6 z M 0,48 h 6 v 6 H 0 Z m 6,0 h 6 v 6 H 6 Z m 6,0 h 6 v 6 h -6 z m 6,0 h 6 v 6 h -6 z m 6,0 h 6 v 6 h -6 z m 12,0 h 6 v 6 h -6 z m 6,0 h 6.000004 v 6 H 42 Z m 6.000004,0 h 6 v 6 h -6 z m 6,0 h 6 v 6 h -6 z m 24,0 h 6 v 6 h -6 z m 6,0 h 6 v 6 h -6 z M 102,48 h 6 v 6 h -6 z m 48,0 h 6 v 6 h -6 z m 6,0 h 6 v 6 h -6 z m 6,0 h 6 v 6 h -6 z m 12,0 h 6 v 6 h -6 z m 12,0 h 6 v 6 h -6 z m 12,0 h 6 v 6 h -6 z m 12,0 h 6 v 6 h -6 z M 18,54 h 6 v 6 h -6 z m 24,0 h 6.000004 v 6 H 42 Z m 18.000004,0 h 6 v 6 h -6 z m 6,0 h 6 v 6 h -6 z m 30,0 H 102 v 6 H 96.000004 Z M 114,54 h 6 v 6 h -6 z m 6,0 h 6 v 6 h -6 z m 18,0 h 6 v 6 h -6 z m 30,0 h 6 v 6 h -6 z m 18,0 h 6 v 6 h -6 z m 12,0 h 6 v 6 h -6 z m 12,0 h 6 v 6 h -6 z M 24,60 h 6 v 6 h -6 z m 12,0 h 6 v 6 h -6 z m 24.000004,0 h 6 v 6 h -6 z m 24,0 h 6 v 6 h -6 z m 6,0 h 6 v 6 h -6 z m 6,0 H 102 v 6 H 96.000004 Z M 102,60 h 6 v 6 h -6 z m 6,0 h 6 v 6 h -6 z m 24,0 h 6 v 6 h -6 z m 12,0 h 6 v 6 h -6 z m 18,0 h 6 v 6 h -6 z m 6,0 h 6 v 6 h -6 z m 12,0 h 6 v 6 h -6 z m 6,0 h 6 v 6 h -6 z m 18,0 h 6 v 6 h -6 z m 6,0 h 6 v 6 h -6 z m 6,0 h 6 v 6 h -6 z M 0,66 h 6 v 6 H 0 Z m 12,0 h 6 v 6 h -6 z m 30,0 h 6.000004 v 6 H 42 Z m 12.000004,0 h 6 v 6 h -6 z m 18,0 h 6 v 6 h -6 z m 12,0 h 6 v 6 h -6 z m 6,0 h 6 v 6 h -6 z m 6,0 H 102 v 6 H 96.000004 Z M 108,66 h 6 v 6 h -6 z m 12,0 h 6 v 6 h -6 z m 6,0 h 6 v 6 h -6 z m 6,0 h 6 v 6 h -6 z m 24,0 h 6 v 6 h -6 z m 12,0 h 6 v 6 h -6 z m 6,0 h 6 v 6 h -6 z m 36,0 h 6 v 6 h -6 z m 6,0 h 6 v 6 h -6 z M 0,72 h 6 v 6 H 0 Z m 6,0 h 6 v 6 H 6 Z m 18,0 h 6 v 6 h -6 z m 12,0 h 6 v 6 h -6 z m 18.000004,0 h 6 v 6 h -6 z m 12,0 h 6 v 6 h -6 z m 6,0 h 6 v 6 h -6 z m 6,0 h 6 v 6 h -6 z M 102,72 h 6 v 6 h -6 z m 18,0 h 6 v 6 h -6 z m 30,0 h 6 v 6 h -6 z m 6,0 h 6 v 6 h -6 z m 18,0 h 6 v 6 h -6 z m 6,0 h 6 v 6 h -6 z m 12,0 h 6 v 6 h -6 z m 6,0 h 6 v 6 h -6 z m 6,0 h 6 v 6 h -6 z m 6,0 h 6 v 6 h -6 z M 0,78 h 6 v 5.999996 H 0 Z m 12,0 h 6 v 5.999996 h -6 z m 12,0 h 6 v 5.999996 h -6 z m 6,0 h 6 v 5.999996 h -6 z m 24.000004,0 h 6 v 5.999996 h -6 z m 12,0 h 6 v 5.999996 h -6 z m 12,0 h 6 v 5.999996 h -6 z m 18,0 H 102 v 5.999996 H 96.000004 Z M 114,78 h 6 v 5.999996 h -6 z m 6,0 h 6 v 5.999996 h -6 z m 18,0 h 6 v 5.999996 h -6 z m 12,0 h 6 v 5.999996 h -6 z m 18,0 h 6 v 5.999996 h -6 z m 6,0 h 6 v 5.999996 h -6 z m 12,0 h 6 v 5.999996 h -6 z M 0,83.999996 h 6 v 6 H 0 Z m 18,0 h 6 v 6 h -6 z m 18,0 h 6 v 6 h -6 z m 12.000004,0 h 6 v 6 h -6 z m 6,0 h 6 v 6 h -6 z m 18,0 h 6 v 6 h -6 z m 6,0 h 6 v 6 h -6 z m 6,0 h 6 v 6 h -6 z m 6,0 h 6 v 6 h -6 z m 6,0 H 102 v 6 h -5.999996 z m 23.999996,0 h 6 v 6 h -6 z m 12,0 h 6 v 6 h -6 z m 12,0 h 6 v 6 h -6 z m 6,0 h 6 v 6 h -6 z m 6,0 h 6 v 6 h -6 z m 6,0 h 6 v 6 h -6 z m 12,0 h 6 v 6 h -6 z m 6,0 h 6 v 6 h -6 z m 6,0 h 6 v 6 h -6 z m 6,0 h 6 v 6 h -6 z m 24,0 h 6 v 6 h -6 z m -216,6 h 6 v 6 H 0 Z m 6,0 h 6 v 6 H 6 Z m 12,0 h 6 v 6 h -6 z m 12,0 h 6 v 6 h -6 z m 12,0 h 6.000004 v 6 H 42 Z m 6.000004,0 h 6 v 6 h -6 z m 6,0 h 6 v 6 h -6 z m 6,0 h 6 v 6 h -6 z m 24,0 h 6 v 6 h -6 z m 12,0 H 102 v 6 h -5.999996 z m 11.999996,0 h 6 v 6 h -6 z m 18,0 h 6 v 6 h -6 z m 6,0 h 6 v 6 h -6 z m 12,0 h 6 v 6 h -6 z m 18,0 h 6 v 6 h -6 z m 6,0 h 6 v 6 h -6 z m 12,0 h 6 v 6 h -6 z m 6,0 h 6 v 6 h -6 z m 6,0 h 6 v 6 h -6 z m 18,0 h 6 v 6 h -6 z m -210,6 H 6 V 102 H 0 Z m 18,0 h 6 V 102 h -6 z m 6,0 h 6 V 102 h -6 z m 6,0 h 6 V 102 h -6 z m 6,0 h 6 V 102 h -6 z m 6,0 h 6.000004 V 102 H 42 Z m 24.000004,0 h 6 V 102 h -6 z m 6,0 h 6 V 102 h -6 z m 6,0 h 6 V 102 h -6 z m 6,0 h 6 V 102 h -6 z m 17.999996,0 h 6 V 102 h -6 z m 6,0 h 6 V 102 h -6 z m 6,0 h 6 V 102 h -6 z m 18,0 h 6 V 102 h -6 z m 6,0 h 6 V 102 h -6 z m 6,0 h 6 V 102 h -6 z m 6,0 h 6 V 102 h -6 z m 6,0 h 6 V 102 h -6 z m 18,0 h 6 V 102 h -6 z m 6,0 h 6 V 102 h -6 z m 6,0 h 6 V 102 h -6 z m 6,0 h 6 V 102 h -6 z m 12,0 h 6 V 102 h -6 z m 12,0 h 6 V 102 h -6 z M 6,102 h 6 v 6 H 6 Z m 6,0 h 6 v 6 h -6 z m 6,0 h 6 v 6 h -6 z m 6,0 h 6 v 6 h -6 z m 30.000004,0 h 6 v 6 h -6 z m 6,0 h 6 v 6 h -6 z m 6,0 h 6 v 6 h -6 z m 12,0 h 6 v 6 h -6 z M 102,102 h 6 v 6 h -6 z m 6,0 h 6 v 6 h -6 z m 6,0 h 6 v 6 h -6 z m 6,0 h 6 v 6 h -6 z m 6,0 h 6 v 6 h -6 z m 12,0 h 6 v 6 h -6 z m 12,0 h 6 v 6 h -6 z m 18,0 h 6 v 6 h -6 z m 30,0 h 6 v 6 h -6 z m 12,0 h 6 v 6 h -6 z M 0,108 h 6 v 6 H 0 Z m 12,0 h 6 v 6 h -6 z m 6,0 h 6 v 6 h -6 z m 6,0 h 6 v 6 h -6 z m 6,0 h 6 v 6 h -6 z m 6,0 h 6 v 6 h -6 z m 12.000004,0 h 6 v 6 h -6 z m 24,0 h 6 v 6 h -6 z m 12,0 h 6 v 6 h -6 z m 6,0 h 6 v 6 h -6 z m 6,0 H 102 v 6 H 96.000004 Z M 126,108 h 6 v 6 h -6 z m 6,0 h 6 v 6 h -6 z m 30,0 h 6 v 6 h -6 z m 24,0 h 6 v 6 h -6 z m 6,0 h 6 v 6 h -6 z m 6,0 h 6 v 6 h -6 z m 6,0 h 6 v 6 h -6 z m 6,0 h 6 v 6 h -6 z m 6,0 h 6 v 6 h -6 z M 0,114 h 6 v 6 H 0 Z m 6,0 h 6 v 6 H 6 Z m 18,0 h 6 v 6 h -6 z m 6,0 h 6 v 6 h -6 z m 12,0 h 6.000004 v 6 H 42 Z m 12.000004,0 h 6 v 6 h -6 z m 18,0 h 6 v 6 h -6 z m 12,0 h 6 v 6 h -6 z m 6,0 h 6 v 6 h -6 z m 6,0 H 102 v 6 H 96.000004 Z M 114,114 h 6 v 6 h -6 z m 6,0 h 6 v 6 h -6 z m 6,0 h 6 v 6 h -6 z m 30,0 h 6 v 6 h -6 z m 12,0 h 6 v 6 h -6 z m 6,0 h 6 v 6 h -6 z m 6,0 h 6 v 6 h -6 z m 6,0 h 6 v 6 h -6 z m 6,0 h 6 v 6 h -6 z m 18,0 h 6 v 6 h -6 z m 6,0 h 6 v 6 h -6 z M 0,120 h 6 v 6 H 0 Z m 6,0 h 6 v 6 H 6 Z m 6,0 h 6 v 6 h -6 z m 6,0 h 6 v 6 h -6 z m 18,0 h 6 v 6 h -6 z m 18.000004,0 h 6 v 6 h -6 z m 24,0 h 6 v 6 h -6 z m 6,0 h 6 v 6 h -6 z M 102,120 h 6 v 6 h -6 z m 12,0 h 6 v 6 h -6 z m 18,0 h 6 v 6 h -6 z m 6,0 h 6 v 6 h -6 z m 12,0 h 6 v 6 h -6 z m 6,0 h 6 v 6 h -6 z m 18,0 h 6 v 6 h -6 z m 6,0 h 6 v 6 h -6 z m 12,0 h 6 v 6 h -6 z m 12,0 h 6 v 6 h -6 z m 6,0 h 6 v 6 h -6 z M 0,126 h 6 v 6 H 0 Z m 6,0 h 6 v 6 H 6 Z m 6,0 h 6 v 6 h -6 z m 12,0 h 6 v 6 h -6 z m 6,0 h 6 v 6 h -6 z m 12,0 h 6.000004 v 6 H 42 Z m 6.000004,0 h 6 v 6 h -6 z m 18,0 h 6 v 6 h -6 z m 30,0 H 102 v 6 H 96.000004 Z M 108,126 h 6 v 6 h -6 z m 6,0 h 6 v 6 h -6 z m 24,0 h 6 v 6 h -6 z m 6,0 h 6 v 6 h -6 z m 24,0 h 6 v 6 h -6 z M 0,132 h 6 v 6 H 0 Z m 12,0 h 6 v 6 h -6 z m 12,0 h 6 v 6 h -6 z m 6,0 h 6 v 6 h -6 z m 6,0 h 6 v 6 h -6 z m 12.000004,0 h 6 v 6 h -6 z m 12,0 h 6 v 6 h -6 z m 12,0 h 6 v 6 h -6 z m 18,0 h 6 v 6 h -6 z m 6,0 H 102 v 6 H 96.000004 Z M 102,132 h 6 v 6 h -6 z m 18,0 h 6 v 6 h -6 z m 6,0 h 6 v 6 h -6 z m 18,0 h 6 v 6 h -6 z m 6,0 h 6 v 6 h -6 z m 6,0 h 6 v 6 h -6 z m 6,0 h 6 v 6 h -6 z m 6,0 h 6 v 6 h -6 z m 6,0 h 6 v 6 h -6 z m 12,0 h 6 v 6 h -6 z m 6,0 h 6 v 6 h -6 z m 6,0 h 6 v 6 h -6 z m 6,0 h 6 v 6 h -6 z m 6,0 h 6 v 6 h -6 z m 6,0 h 6 v 6 h -6 z M 6,138 h 6 v 6 H 6 Z m 6,0 h 6 v 6 h -6 z m 12,0 h 6 v 6 h -6 z m 6,0 h 6 v 6 h -6 z m 12,0 h 6.000004 v 6 H 42 Z m 12.000004,0 h 6 v 6 h -6 z m 12,0 h 6 v 6 h -6 z m 18,0 h 6 v 6 h -6 z m 12,0 H 102 v 6 H 96.000004 Z M 114,138 h 6 v 6 h -6 z m 12,0 h 6 v 6 h -6 z m 6,0 h 6 v 6 h -6 z m 36,0 h 6 v 6 h -6 z m 6,0 h 6 v 6 h -6 z m 12,0 h 6 v 6 h -6 z m 6,0 h 6 v 6 h -6 z m 24,0 h 6 v 6 h -6 z m -204,6 h 6 v 6 h -6 z m 12,0 h 6 v 6 h -6 z m 6,0 h 6 v 6 h -6 z m 6,0 h 6 v 6 h -6 z m 6,0 h 6.000004 v 6 H 42 Z m 12.000004,0 h 6 v 6 h -6 z m 6,0 h 6 v 6 h -6 z m 6,0 h 6 v 6 h -6 z m 6,0 h 6 v 6 h -6 z m 6,0 h 6 v 6 h -6 z m 6,0 h 6 v 6 h -6 z M 102,144 h 6 v 6 h -6 z m 18,0 h 6 v 6 h -6 z m 12,0 h 6 v 6 h -6 z m 6,0 h 6 v 6 h -6 z m 6,0 h 6 v 6 h -6 z m 6,0 h 6 v 6 h -6 z m 6,0 h 6 v 6 h -6 z m 6,0 h 6 v 6 h -6 z m 6,0 h 6 v 6 h -6 z m 6,0 h 6 v 6 h -6 z m 6,0 h 6 v 6 h -6 z m 12,0 h 6 v 6 h -6 z m 6,0 h 6 v 6 h -6 z m 6,0 h 6 v 6 h -6 z m 6,0 h 6 v 6 h -6 z m 6,0 h 6 v 6 h -6 z M 0,150 h 6 v 6 H 0 Z m 6,0 h 6 v 6 H 6 Z m 42.000004,0 h 6 v 6 h -6 z m 6,0 h 6 v 6 h -6 z m 12,0 h 6 v 6 h -6 z m 6,0 h 6 v 6 h -6 z m 6,0 h 6 v 6 h -6 z m 18,0 H 102 v 6 H 96.000004 Z M 114,150 h 6 v 6 h -6 z m 6,0 h 6 v 6 h -6 z m 6,0 h 6 v 6 h -6 z m 6,0 h 6 v 6 h -6 z m 6,0 h 6 v 6 h -6 z m 30,0 h 6 v 6 h -6 z m 30,0 h 6 v 6 h -6 z m 6,0 h 6 v 6 h -6 z m 6,0 h 6 v 6 h -6 z M 0,156 h 6 v 6 H 0 Z m 12,0 h 6 v 6 h -6 z m 12,0 h 6 v 6 h -6 z m 12,0 h 6 v 6 h -6 z m 6,0 h 6.000004 v 6 H 42 Z m 18.000004,0 h 6 v 6 h -6 z m 12,0 h 6 v 6 h -6 z m 6,0 h 6 v 6 h -6 z m 6,0 h 6 v 6 h -6 z m 6,0 h 6 v 6 h -6 z m 6,0 H 102 v 6 H 96.000004 Z M 102,156 h 6 v 6 h -6 z m 6,0 h 6 v 6 h -6 z m 36,0 h 6 v 6 h -6 z m 12,0 h 6 v 6 h -6 z m 6,0 h 6 v 6 h -6 z m 6,0 h 6 v 6 h -6 z m 6,0 h 6 v 6 h -6 z m 18,0 h 6 v 6 h -6 z m 18,0 h 6 v 6 h -6 z m 6,0 h 6 v 6 h -6 z M 0,162 h 6 v 6 H 0 Z m 24,0 h 6 v 6 h -6 z m 6,0 h 6 v 6 h -6 z m 18.000004,0 h 6 v 6 h -6 z m 12,0 h 6 v 6 h -6 z M 108,162 h 6 v 6 h -6 z m 12,0 h 6 v 6 h -6 z m 6,0 h 6 v 6 h -6 z m 6,0 h 6 v 6 h -6 z m 6,0 h 6 v 6 h -6 z m 6,0 h 6 v 6 h -6 z m 12,0 h 6 v 6 h -6 z m 12,0 h 6 v 6 h -6 z m 24,0 h 6 v 6 h -6 z m 18,0 h 6 v 6 h -6 z m 6,0 h 6 v 6 h -6 z M 0,168 h 6 v 6 H 0 Z m 12,0 h 6 v 6 h -6 z m 12,0 h 6 v 6 h -6 z m 6,0 h 6 v 6 h -6 z m 6,0 h 6 v 6 h -6 z m 6,0 h 6.000004 v 6 H 42 Z m 12.000004,0 h 6 v 6 h -6 z m 6,0 h 6 v 6 h -6 z m 18,0 h 6 v 6 h -6 z m 6,0 h 6 v 6 h -6 z m 6,0 h 6 v 6 h -6 z M 102,168 h 6 v 6 h -6 z m 18,0 h 6 v 6 h -6 z m 12,0 h 6 v 6 h -6 z m 18,0 h 6 v 6 h -6 z m 6,0 h 6 v 6 h -6 z m 12,0 h 6 v 6 h -6 z m 6,0 h 6 v 6 h -6 z m 6,0 h 6 v 6 h -6 z m 6,0 h 6 v 6 h -6 z m 6,0 h 6 v 6 h -6 z m 6,0 h 6 v 6 h -6 z m 6,0 h 6 v 6 h -6 z m -155.999996,6 h 6 v 6 h -6 z m 6,0 h 6 v 6 h -6 z m 6,0 h 6 v 6 h -6 z m 6,0 h 6 v 6 h -6 z m 12,0 h 6 v 6 h -6 z m 18,0 H 102 v 6 H 96.000004 Z M 102,174 h 6 v 6 h -6 z m 6,0 h 6 v 6 h -6 z m 6,0 h 6 v 6 h -6 z m 6,0 h 6 v 6 h -6 z m 6,0 h 6 v 6 h -6 z m 12,0 h 6 v 6 h -6 z m 18,0 h 6 v 6 h -6 z m 6,0 h 6 v 6 h -6 z m 6,0 h 6 v 6 h -6 z m 24,0 h 6 v 6 h -6 z m 6,0 h 6 v 6 h -6 z M 0,180 h 6 v 6 H 0 Z m 6,0 h 6 v 6 H 6 Z m 6,0 h 6 v 6 h -6 z m 6,0 h 6 v 6 h -6 z m 6,0 h 6 v 6 h -6 z m 6,0 h 6 v 6 h -6 z m 6,0 h 6 v 6 h -6 z m 12.000004,0 h 6 v 6 h -6 z m 12,0 h 6 v 6 h -6 z m 30,0 h 6 v 6 h -6 z M 102,180 h 6 v 6 h -6 z m 48,0 h 6 v 6 h -6 z m 18,0 h 6 v 6 h -6 z m 12,0 h 6 v 6 h -6 z m 12,0 h 6 v 6 h -6 z m 12,0 h 6 v 6 h -6 z m 6,0 h 6 v 6 h -6 z m 6,0 h 6 v 6 h -6 z M 0,186 h 6 v 6 H 0 Z m 36,0 h 6 v 6 h -6 z m 18.000004,0 h 6 v 6 h -6 z m 6,0 h 6 v 6 h -6 z m 6,0 h 6 v 6 h -6 z m 6,0 h 6 v 6 h -6 z m 12,0 h 6 v 6 h -6 z m 12,0 H 102 v 6 H 96.000004 Z M 114,186 h 6 v 6 h -6 z m 6,0 h 6 v 6 h -6 z m 6,0 h 6 v 6 h -6 z m 6,0 h 6 v 6 h -6 z m 24,0 h 6 v 6 h -6 z m 12,0 h 6 v 6 h -6 z m 24,0 h 6 v 6 h -6 z m 24,0 h 6 v 6 h -6 z M 0,192 h 6 v 6 H 0 Z m 12,0 h 6 v 6 h -6 z m 6,0 h 6 v 6 h -6 z m 6,0 h 6 v 6 h -6 z m 12,0 h 6 v 6 h -6 z m 12.000004,0 h 6 v 6 h -6 z m 6,0 h 6 v 6 h -6 z m 24,0 h 6 v 6 h -6 z m 6,0 h 6 v 6 h -6 z M 102,192 h 6 v 6 h -6 z m 12,0 h 6 v 6 h -6 z m 18,0 h 6 v 6 h -6 z m 18,0 h 6 v 6 h -6 z m 6,0 h 6 v 6 h -6 z m 6,0 h 6 v 6 h -6 z m 6,0 h 6 v 6 h -6 z m 6,0 h 6 v 6 h -6 z m 6,0 h 6 v 6 h -6 z m 6,0 h 6 v 6 h -6 z m 6,0 h 6 v 6 h -6 z m 6,0 h 6 v 6 h -6 z m 6,0 h 6 v 6 h -6 z M 0,198 h 6 v 6 H 0 Z m 12,0 h 6 v 6 h -6 z m 6,0 h 6 v 6 h -6 z m 6,0 h 6 v 6 h -6 z m 12,0 h 6 v 6 h -6 z m 12.000004,0 h 6 v 6 h -6 z m 6,0 h 6 v 6 h -6 z m 6,0 h 6 v 6 h -6 z m 6,0 h 6 v 6 h -6 z M 114,198 h 6 v 6 h -6 z m 6,0 h 6 v 6 h -6 z m 18,0 h 6 v 6 h -6 z m 18,0 h 6 v 6 h -6 z m 6,0 h 6 v 6 h -6 z m 18,0 h 6 v 6 h -6 z m 6,0 h 6 v 6 h -6 z m 6,0 h 6 v 6 h -6 z M 0,204 h 6 v 6 H 0 Z m 12,0 h 6 v 6 h -6 z m 6,0 h 6 v 6 h -6 z m 6,0 h 6 v 6 h -6 z m 12,0 h 6 v 6 h -6 z m 12.000004,0 h 6 v 6 h -6 z m 6,0 h 6 v 6 h -6 z m 24,0 h 6 v 6 h -6 z m 6,0 h 6 v 6 h -6 z m 6,0 h 6 v 6 h -6 z M 120,204 h 6 v 6 h -6 z m 12,0 h 6 v 6 h -6 z m 12,0 h 6 v 6 h -6 z m 12,0 h 6 v 6 h -6 z m 18,0 h 6 v 6 h -6 z m 36,0 h 6 v 6 h -6 z m 6,0 h 6 v 6 h -6 z M 0,210 h 6 v 6 H 0 Z m 36,0 h 6 v 6 h -6 z m 12.000004,0 h 6 v 6 h -6 z m 6,0 h 6 v 6 h -6 z m 36,0 h 6 v 6 h -6 z M 120,210 h 6 v 6 h -6 z m 6,0 h 6 v 6 h -6 z m 6,0 h 6 v 6 h -6 z m 6,0 h 6 v 6 h -6 z m 24,0 h 6 v 6 h -6 z m 6,0 h 6 v 6 h -6 z m 6,0 h 6 v 6 h -6 z m 12,0 h 6 v 6 h -6 z m 6,0 h 6 v 6 h -6 z m 24,0 h 6 v 6 h -6 z M 0,216 h 6 v 6 H 0 Z m 6,0 h 6 v 6 H 6 Z m 6,0 h 6 v 6 h -6 z m 6,0 h 6 v 6 h -6 z m 6,0 h 6 v 6 h -6 z m 6,0 h 6 v 6 h -6 z m 6,0 h 6 v 6 h -6 z m 12.000004,0 h 6 v 6 h -6 z m 6,0 h 6 v 6 h -6 z m 18,0 h 6 v 6 h -6 z m 6,0 h 6 v 6 h -6 z m 6,0 h 6 v 6 h -6 z m 6,0 h 6 v 6 h -6 z m 6,0 H 102 v 6 H 96.000004 Z M 102,216 h 6 v 6 h -6 z m 18,0 h 6 v 6 h -6 z m 12,0 h 6 v 6 h -6 z m 12,0 h 6 v 6 h -6 z m 6,0 h 6 v 6 h -6 z m 24,0 h 6 v 6 h -6 z m 6,0 h 6 v 6 h -6 z m 24,0 h 6 v 6 h -6 z m 6,0 h 6 v 6 h -6 z m 6,0 h 6 v 6 h -6 z"
     style="fill:#000000" />
</svg>
